<mxfile host="Electron" agent="Mozilla/5.0 (Windows NT 10.0; Win64; x64) AppleWebKit/537.36 (KHTML, like Gecko) draw.io/26.0.16 Chrome/132.0.6834.196 Electron/34.2.0 Safari/537.36" version="26.0.16">
  <diagram name="第 1 页" id="SqEImZ11hb5wvaP71WHp">
    <mxGraphModel dx="2313" dy="1078" grid="1" gridSize="10" guides="1" tooltips="1" connect="1" arrows="1" fold="1" page="1" pageScale="1" pageWidth="827" pageHeight="1169" math="0" shadow="0">
      <root>
        <mxCell id="0" />
        <mxCell id="1" parent="0" />
        <mxCell id="Riq8RpmcWjQWpSHCEzmq-1" value="" style="endArrow=none;html=1;rounded=0;" parent="1" edge="1">
          <mxGeometry width="50" height="50" relative="1" as="geometry">
            <mxPoint x="103" y="125" as="sourcePoint" />
            <mxPoint x="183" y="125" as="targetPoint" />
          </mxGeometry>
        </mxCell>
        <mxCell id="Riq8RpmcWjQWpSHCEzmq-2" value="" style="endArrow=none;html=1;rounded=0;" parent="1" edge="1">
          <mxGeometry width="50" height="50" relative="1" as="geometry">
            <mxPoint x="430" y="119" as="sourcePoint" />
            <mxPoint x="510" y="119" as="targetPoint" />
          </mxGeometry>
        </mxCell>
        <mxCell id="Riq8RpmcWjQWpSHCEzmq-3" value="客户端线程" style="text;html=1;align=center;verticalAlign=middle;resizable=0;points=[];autosize=1;strokeColor=none;fillColor=none;" parent="1" vertex="1">
          <mxGeometry x="103" y="96" width="80" height="30" as="geometry" />
        </mxCell>
        <mxCell id="Riq8RpmcWjQWpSHCEzmq-62" style="edgeStyle=orthogonalEdgeStyle;rounded=0;orthogonalLoop=1;jettySize=auto;html=1;exitX=0.5;exitY=1;exitDx=0;exitDy=0;entryX=0.5;entryY=0;entryDx=0;entryDy=0;" parent="1" source="Riq8RpmcWjQWpSHCEzmq-6" target="Riq8RpmcWjQWpSHCEzmq-7" edge="1">
          <mxGeometry relative="1" as="geometry" />
        </mxCell>
        <mxCell id="Riq8RpmcWjQWpSHCEzmq-6" value="rdma_create_event_channel" style="rounded=1;whiteSpace=wrap;html=1;arcSize=6;" parent="1" vertex="1">
          <mxGeometry x="88" y="155" width="110" height="40" as="geometry" />
        </mxCell>
        <mxCell id="Riq8RpmcWjQWpSHCEzmq-65" style="edgeStyle=orthogonalEdgeStyle;rounded=0;orthogonalLoop=1;jettySize=auto;html=1;exitX=0.5;exitY=1;exitDx=0;exitDy=0;entryX=0.5;entryY=0;entryDx=0;entryDy=0;" parent="1" source="Riq8RpmcWjQWpSHCEzmq-7" target="Riq8RpmcWjQWpSHCEzmq-8" edge="1">
          <mxGeometry relative="1" as="geometry" />
        </mxCell>
        <mxCell id="Riq8RpmcWjQWpSHCEzmq-7" value="rdma_create_id" style="rounded=1;whiteSpace=wrap;html=1;arcSize=6;" parent="1" vertex="1">
          <mxGeometry x="88" y="225" width="110" height="40" as="geometry" />
        </mxCell>
        <mxCell id="Riq8RpmcWjQWpSHCEzmq-67" style="edgeStyle=orthogonalEdgeStyle;rounded=0;orthogonalLoop=1;jettySize=auto;html=1;exitX=0.5;exitY=1;exitDx=0;exitDy=0;entryX=0.5;entryY=0;entryDx=0;entryDy=0;" parent="1" source="Riq8RpmcWjQWpSHCEzmq-8" target="Riq8RpmcWjQWpSHCEzmq-66" edge="1">
          <mxGeometry relative="1" as="geometry" />
        </mxCell>
        <mxCell id="Riq8RpmcWjQWpSHCEzmq-8" value="rdma_resolve_addr" style="rounded=1;whiteSpace=wrap;html=1;arcSize=6;" parent="1" vertex="1">
          <mxGeometry x="88" y="295" width="110" height="40" as="geometry" />
        </mxCell>
        <mxCell id="Riq8RpmcWjQWpSHCEzmq-24" style="edgeStyle=orthogonalEdgeStyle;rounded=0;orthogonalLoop=1;jettySize=auto;html=1;exitX=0.5;exitY=1;exitDx=0;exitDy=0;entryX=0.5;entryY=0;entryDx=0;entryDy=0;" parent="1" source="Riq8RpmcWjQWpSHCEzmq-11" target="Riq8RpmcWjQWpSHCEzmq-12" edge="1">
          <mxGeometry relative="1" as="geometry" />
        </mxCell>
        <mxCell id="Riq8RpmcWjQWpSHCEzmq-11" value="rdma_create_event_channel" style="rounded=1;whiteSpace=wrap;html=1;arcSize=6;" parent="1" vertex="1">
          <mxGeometry x="415" y="150" width="110" height="40" as="geometry" />
        </mxCell>
        <mxCell id="Riq8RpmcWjQWpSHCEzmq-25" style="edgeStyle=orthogonalEdgeStyle;rounded=0;orthogonalLoop=1;jettySize=auto;html=1;exitX=0.5;exitY=1;exitDx=0;exitDy=0;entryX=0.5;entryY=0;entryDx=0;entryDy=0;" parent="1" source="Riq8RpmcWjQWpSHCEzmq-12" target="Riq8RpmcWjQWpSHCEzmq-13" edge="1">
          <mxGeometry relative="1" as="geometry" />
        </mxCell>
        <mxCell id="Riq8RpmcWjQWpSHCEzmq-12" value="rdma_create_id" style="rounded=1;whiteSpace=wrap;html=1;arcSize=6;" parent="1" vertex="1">
          <mxGeometry x="415" y="220" width="110" height="40" as="geometry" />
        </mxCell>
        <mxCell id="Riq8RpmcWjQWpSHCEzmq-26" style="edgeStyle=orthogonalEdgeStyle;rounded=0;orthogonalLoop=1;jettySize=auto;html=1;exitX=0.5;exitY=1;exitDx=0;exitDy=0;entryX=0.5;entryY=0;entryDx=0;entryDy=0;" parent="1" source="Riq8RpmcWjQWpSHCEzmq-13" target="Riq8RpmcWjQWpSHCEzmq-16" edge="1">
          <mxGeometry relative="1" as="geometry" />
        </mxCell>
        <mxCell id="Riq8RpmcWjQWpSHCEzmq-13" value="rdma_bind_addr" style="rounded=1;whiteSpace=wrap;html=1;arcSize=6;" parent="1" vertex="1">
          <mxGeometry x="415" y="290" width="110" height="40" as="geometry" />
        </mxCell>
        <mxCell id="Riq8RpmcWjQWpSHCEzmq-27" style="edgeStyle=orthogonalEdgeStyle;rounded=0;orthogonalLoop=1;jettySize=auto;html=1;exitX=0.5;exitY=1;exitDx=0;exitDy=0;entryX=0.5;entryY=0;entryDx=0;entryDy=0;" parent="1" source="Riq8RpmcWjQWpSHCEzmq-16" target="Riq8RpmcWjQWpSHCEzmq-19" edge="1">
          <mxGeometry relative="1" as="geometry" />
        </mxCell>
        <mxCell id="Riq8RpmcWjQWpSHCEzmq-16" value="rdma_listen" style="rounded=1;whiteSpace=wrap;html=1;arcSize=6;" parent="1" vertex="1">
          <mxGeometry x="415" y="360" width="110" height="40" as="geometry" />
        </mxCell>
        <mxCell id="Riq8RpmcWjQWpSHCEzmq-46" style="edgeStyle=orthogonalEdgeStyle;rounded=0;orthogonalLoop=1;jettySize=auto;html=1;exitX=0.5;exitY=1;exitDx=0;exitDy=0;entryX=0.5;entryY=0;entryDx=0;entryDy=0;" parent="1" source="Riq8RpmcWjQWpSHCEzmq-18" target="Riq8RpmcWjQWpSHCEzmq-45" edge="1">
          <mxGeometry relative="1" as="geometry" />
        </mxCell>
        <mxCell id="Riq8RpmcWjQWpSHCEzmq-18" value="rdma_accept" style="rounded=1;whiteSpace=wrap;html=1;arcSize=6;" parent="1" vertex="1">
          <mxGeometry x="615" y="655" width="110" height="40" as="geometry" />
        </mxCell>
        <mxCell id="Riq8RpmcWjQWpSHCEzmq-29" style="edgeStyle=orthogonalEdgeStyle;rounded=0;orthogonalLoop=1;jettySize=auto;html=1;exitX=0.5;exitY=1;exitDx=0;exitDy=0;entryX=0.5;entryY=0;entryDx=0;entryDy=0;" parent="1" source="Riq8RpmcWjQWpSHCEzmq-19" target="Riq8RpmcWjQWpSHCEzmq-28" edge="1">
          <mxGeometry relative="1" as="geometry" />
        </mxCell>
        <mxCell id="Riq8RpmcWjQWpSHCEzmq-19" value="rdma_get_cm_event" style="rounded=1;whiteSpace=wrap;html=1;arcSize=6;" parent="1" vertex="1">
          <mxGeometry x="415" y="430" width="110" height="40" as="geometry" />
        </mxCell>
        <mxCell id="Riq8RpmcWjQWpSHCEzmq-22" value="" style="endArrow=classic;html=1;rounded=0;entryX=0.5;entryY=0;entryDx=0;entryDy=0;" parent="1" target="Riq8RpmcWjQWpSHCEzmq-11" edge="1">
          <mxGeometry width="50" height="50" relative="1" as="geometry">
            <mxPoint x="470" y="120" as="sourcePoint" />
            <mxPoint x="625" y="120" as="targetPoint" />
          </mxGeometry>
        </mxCell>
        <mxCell id="Riq8RpmcWjQWpSHCEzmq-23" value="服务器线程" style="text;html=1;align=center;verticalAlign=middle;resizable=0;points=[];autosize=1;strokeColor=none;fillColor=none;" parent="1" vertex="1">
          <mxGeometry x="430" y="90" width="80" height="30" as="geometry" />
        </mxCell>
        <mxCell id="Riq8RpmcWjQWpSHCEzmq-33" style="edgeStyle=orthogonalEdgeStyle;rounded=0;orthogonalLoop=1;jettySize=auto;html=1;exitX=0.5;exitY=1;exitDx=0;exitDy=0;entryX=0.5;entryY=0;entryDx=0;entryDy=0;" parent="1" source="Riq8RpmcWjQWpSHCEzmq-28" target="Riq8RpmcWjQWpSHCEzmq-32" edge="1">
          <mxGeometry relative="1" as="geometry" />
        </mxCell>
        <mxCell id="Riq8RpmcWjQWpSHCEzmq-38" style="edgeStyle=orthogonalEdgeStyle;rounded=0;orthogonalLoop=1;jettySize=auto;html=1;exitX=1;exitY=0.5;exitDx=0;exitDy=0;entryX=0.5;entryY=0;entryDx=0;entryDy=0;" parent="1" source="Riq8RpmcWjQWpSHCEzmq-28" target="Riq8RpmcWjQWpSHCEzmq-39" edge="1">
          <mxGeometry relative="1" as="geometry">
            <mxPoint x="665" y="525.4545454545454" as="targetPoint" />
          </mxGeometry>
        </mxCell>
        <mxCell id="Riq8RpmcWjQWpSHCEzmq-28" value="event" style="rhombus;whiteSpace=wrap;html=1;" parent="1" vertex="1">
          <mxGeometry x="412.5" y="500" width="115" height="50" as="geometry" />
        </mxCell>
        <mxCell id="Riq8RpmcWjQWpSHCEzmq-52" style="edgeStyle=orthogonalEdgeStyle;rounded=0;orthogonalLoop=1;jettySize=auto;html=1;exitX=0.5;exitY=1;exitDx=0;exitDy=0;entryX=0.5;entryY=0;entryDx=0;entryDy=0;" parent="1" source="Riq8RpmcWjQWpSHCEzmq-32" target="Riq8RpmcWjQWpSHCEzmq-42" edge="1">
          <mxGeometry relative="1" as="geometry" />
        </mxCell>
        <mxCell id="Riq8RpmcWjQWpSHCEzmq-32" value="更新连接信息&lt;div&gt;记录 rdma_cm_id&lt;/div&gt;" style="rounded=1;whiteSpace=wrap;html=1;arcSize=6;" parent="1" vertex="1">
          <mxGeometry x="415" y="585" width="110" height="40" as="geometry" />
        </mxCell>
        <mxCell id="Riq8RpmcWjQWpSHCEzmq-34" value="&lt;font style=&quot;font-size: 10px;&quot;&gt;RDMA_CM_EVENT_CONNECT_REQUEST&lt;/font&gt;" style="text;html=1;align=center;verticalAlign=middle;resizable=0;points=[];autosize=1;strokeColor=none;fillColor=none;" parent="1" vertex="1">
          <mxGeometry x="525" y="498" width="220" height="30" as="geometry" />
        </mxCell>
        <mxCell id="Riq8RpmcWjQWpSHCEzmq-37" value="switch" style="text;html=1;align=center;verticalAlign=middle;resizable=0;points=[];autosize=1;strokeColor=none;fillColor=none;" parent="1" vertex="1">
          <mxGeometry x="459" y="468" width="60" height="30" as="geometry" />
        </mxCell>
        <mxCell id="Riq8RpmcWjQWpSHCEzmq-43" style="edgeStyle=orthogonalEdgeStyle;rounded=0;orthogonalLoop=1;jettySize=auto;html=1;exitX=0.5;exitY=1;exitDx=0;exitDy=0;entryX=0.5;entryY=0;entryDx=0;entryDy=0;" parent="1" source="Riq8RpmcWjQWpSHCEzmq-39" target="Riq8RpmcWjQWpSHCEzmq-18" edge="1">
          <mxGeometry relative="1" as="geometry" />
        </mxCell>
        <mxCell id="Riq8RpmcWjQWpSHCEzmq-39" value="rdma_create_qp" style="rounded=1;whiteSpace=wrap;html=1;arcSize=6;" parent="1" vertex="1">
          <mxGeometry x="615" y="585" width="110" height="40" as="geometry" />
        </mxCell>
        <mxCell id="Riq8RpmcWjQWpSHCEzmq-40" value="&lt;font style=&quot;font-size: 10px;&quot;&gt;RDMA_CM_EVENT_ESTABLISHED&lt;/font&gt;" style="text;html=1;align=center;verticalAlign=middle;resizable=0;points=[];autosize=1;strokeColor=none;fillColor=none;" parent="1" vertex="1">
          <mxGeometry x="409" y="550" width="190" height="30" as="geometry" />
        </mxCell>
        <mxCell id="Riq8RpmcWjQWpSHCEzmq-54" style="edgeStyle=orthogonalEdgeStyle;rounded=0;orthogonalLoop=1;jettySize=auto;html=1;exitX=1;exitY=0.5;exitDx=0;exitDy=0;entryX=0;entryY=0.5;entryDx=0;entryDy=0;" parent="1" source="Riq8RpmcWjQWpSHCEzmq-42" target="Riq8RpmcWjQWpSHCEzmq-45" edge="1">
          <mxGeometry relative="1" as="geometry" />
        </mxCell>
        <mxCell id="Riq8RpmcWjQWpSHCEzmq-42" value="连接数目 == jiapid" style="rhombus;whiteSpace=wrap;html=1;" parent="1" vertex="1">
          <mxGeometry x="412" y="655" width="115" height="50" as="geometry" />
        </mxCell>
        <mxCell id="E2ze0BFsvlD_A244Hqkg-1" style="edgeStyle=orthogonalEdgeStyle;rounded=0;orthogonalLoop=1;jettySize=auto;html=1;exitX=1;exitY=0.5;exitDx=0;exitDy=0;entryX=1;entryY=0.5;entryDx=0;entryDy=0;" edge="1" parent="1" source="Riq8RpmcWjQWpSHCEzmq-45" target="Riq8RpmcWjQWpSHCEzmq-19">
          <mxGeometry relative="1" as="geometry" />
        </mxCell>
        <mxCell id="Riq8RpmcWjQWpSHCEzmq-45" value="rdma_ack_cm_event" style="rounded=1;whiteSpace=wrap;html=1;arcSize=6;" parent="1" vertex="1">
          <mxGeometry x="615" y="725" width="110" height="40" as="geometry" />
        </mxCell>
        <mxCell id="Riq8RpmcWjQWpSHCEzmq-51" value="" style="edgeStyle=orthogonalEdgeStyle;rounded=0;orthogonalLoop=1;jettySize=auto;html=1;exitX=0.5;exitY=1;exitDx=0;exitDy=0;" parent="1" source="Riq8RpmcWjQWpSHCEzmq-42" target="Riq8RpmcWjQWpSHCEzmq-50" edge="1">
          <mxGeometry relative="1" as="geometry">
            <mxPoint x="467.25" y="740" as="targetPoint" />
            <mxPoint x="468" y="705" as="sourcePoint" />
          </mxGeometry>
        </mxCell>
        <mxCell id="Riq8RpmcWjQWpSHCEzmq-60" style="edgeStyle=orthogonalEdgeStyle;rounded=0;orthogonalLoop=1;jettySize=auto;html=1;exitX=0.5;exitY=1;exitDx=0;exitDy=0;entryX=0.5;entryY=0;entryDx=0;entryDy=0;" parent="1" source="Riq8RpmcWjQWpSHCEzmq-50" target="Riq8RpmcWjQWpSHCEzmq-59" edge="1">
          <mxGeometry relative="1" as="geometry" />
        </mxCell>
        <mxCell id="Riq8RpmcWjQWpSHCEzmq-50" value="rdma_ack_cm_event" style="rounded=1;whiteSpace=wrap;html=1;arcSize=6;" parent="1" vertex="1">
          <mxGeometry x="415" y="740" width="110" height="40" as="geometry" />
        </mxCell>
        <mxCell id="Riq8RpmcWjQWpSHCEzmq-56" value="No" style="text;html=1;align=center;verticalAlign=middle;resizable=0;points=[];autosize=1;strokeColor=none;fillColor=none;" parent="1" vertex="1">
          <mxGeometry x="520.5" y="655" width="40" height="30" as="geometry" />
        </mxCell>
        <mxCell id="Riq8RpmcWjQWpSHCEzmq-57" value="Yes" style="text;html=1;align=center;verticalAlign=middle;resizable=0;points=[];autosize=1;strokeColor=none;fillColor=none;" parent="1" vertex="1">
          <mxGeometry x="462" y="705" width="40" height="30" as="geometry" />
        </mxCell>
        <mxCell id="Riq8RpmcWjQWpSHCEzmq-74" style="edgeStyle=orthogonalEdgeStyle;rounded=0;orthogonalLoop=1;jettySize=auto;html=1;exitX=0.5;exitY=1;exitDx=0;exitDy=0;entryX=0.5;entryY=0;entryDx=0;entryDy=0;" parent="1" source="Riq8RpmcWjQWpSHCEzmq-59" target="Riq8RpmcWjQWpSHCEzmq-73" edge="1">
          <mxGeometry relative="1" as="geometry" />
        </mxCell>
        <mxCell id="Riq8RpmcWjQWpSHCEzmq-59" value="rdma_destroy_id" style="rounded=1;whiteSpace=wrap;html=1;arcSize=6;" parent="1" vertex="1">
          <mxGeometry x="415" y="810" width="110" height="40" as="geometry" />
        </mxCell>
        <mxCell id="Riq8RpmcWjQWpSHCEzmq-61" value="" style="endArrow=classic;html=1;rounded=0;entryX=0.5;entryY=0;entryDx=0;entryDy=0;" parent="1" target="Riq8RpmcWjQWpSHCEzmq-6" edge="1">
          <mxGeometry width="50" height="50" relative="1" as="geometry">
            <mxPoint x="143" y="125" as="sourcePoint" />
            <mxPoint x="3" y="185" as="targetPoint" />
          </mxGeometry>
        </mxCell>
        <mxCell id="Riq8RpmcWjQWpSHCEzmq-69" style="edgeStyle=orthogonalEdgeStyle;rounded=0;orthogonalLoop=1;jettySize=auto;html=1;exitX=0.5;exitY=1;exitDx=0;exitDy=0;entryX=0.5;entryY=0;entryDx=0;entryDy=0;" parent="1" source="Riq8RpmcWjQWpSHCEzmq-66" target="Riq8RpmcWjQWpSHCEzmq-68" edge="1">
          <mxGeometry relative="1" as="geometry" />
        </mxCell>
        <mxCell id="Riq8RpmcWjQWpSHCEzmq-66" value="rdma_get_cm_event" style="rounded=1;whiteSpace=wrap;html=1;arcSize=6;" parent="1" vertex="1">
          <mxGeometry x="88" y="365" width="110" height="40" as="geometry" />
        </mxCell>
        <mxCell id="Riq8RpmcWjQWpSHCEzmq-71" style="edgeStyle=orthogonalEdgeStyle;rounded=0;orthogonalLoop=1;jettySize=auto;html=1;exitX=0.5;exitY=1;exitDx=0;exitDy=0;entryX=0.5;entryY=0;entryDx=0;entryDy=0;" parent="1" source="Riq8RpmcWjQWpSHCEzmq-68" target="Riq8RpmcWjQWpSHCEzmq-70" edge="1">
          <mxGeometry relative="1" as="geometry" />
        </mxCell>
        <mxCell id="Riq8RpmcWjQWpSHCEzmq-78" style="edgeStyle=orthogonalEdgeStyle;rounded=0;orthogonalLoop=1;jettySize=auto;html=1;exitX=0;exitY=0.5;exitDx=0;exitDy=0;entryX=0.5;entryY=0;entryDx=0;entryDy=0;" parent="1" target="Riq8RpmcWjQWpSHCEzmq-75" edge="1">
          <mxGeometry relative="1" as="geometry">
            <mxPoint x="118.5" y="460" as="sourcePoint" />
          </mxGeometry>
        </mxCell>
        <mxCell id="Riq8RpmcWjQWpSHCEzmq-79" style="edgeStyle=orthogonalEdgeStyle;rounded=0;orthogonalLoop=1;jettySize=auto;html=1;exitX=0;exitY=0.5;exitDx=0;exitDy=0;entryX=0.5;entryY=0;entryDx=0;entryDy=0;" parent="1" target="Riq8RpmcWjQWpSHCEzmq-76" edge="1">
          <mxGeometry relative="1" as="geometry">
            <mxPoint x="118.5" y="460" as="sourcePoint" />
          </mxGeometry>
        </mxCell>
        <mxCell id="Riq8RpmcWjQWpSHCEzmq-90" style="edgeStyle=orthogonalEdgeStyle;rounded=0;orthogonalLoop=1;jettySize=auto;html=1;exitX=0;exitY=0.5;exitDx=0;exitDy=0;entryX=0.5;entryY=0;entryDx=0;entryDy=0;" parent="1" target="Riq8RpmcWjQWpSHCEzmq-89" edge="1">
          <mxGeometry relative="1" as="geometry">
            <mxPoint x="118.5" y="460" as="sourcePoint" />
          </mxGeometry>
        </mxCell>
        <mxCell id="Riq8RpmcWjQWpSHCEzmq-68" value="event" style="rhombus;whiteSpace=wrap;html=1;" parent="1" vertex="1">
          <mxGeometry x="85.5" y="435" width="115" height="50" as="geometry" />
        </mxCell>
        <mxCell id="Riq8RpmcWjQWpSHCEzmq-99" style="edgeStyle=orthogonalEdgeStyle;rounded=0;orthogonalLoop=1;jettySize=auto;html=1;exitX=0.5;exitY=1;exitDx=0;exitDy=0;entryX=0.5;entryY=0;entryDx=0;entryDy=0;" parent="1" source="Riq8RpmcWjQWpSHCEzmq-70" target="Riq8RpmcWjQWpSHCEzmq-98" edge="1">
          <mxGeometry relative="1" as="geometry" />
        </mxCell>
        <mxCell id="Riq8RpmcWjQWpSHCEzmq-70" value="更新连接信息&lt;div&gt;记录 rdma_cm_id&lt;/div&gt;" style="rounded=1;whiteSpace=wrap;html=1;arcSize=6;" parent="1" vertex="1">
          <mxGeometry x="88" y="515" width="110" height="40" as="geometry" />
        </mxCell>
        <mxCell id="Riq8RpmcWjQWpSHCEzmq-72" value="&lt;font style=&quot;font-size: 10px;&quot;&gt;RDMA_CM_EVENT_ESTABLISHED&lt;/font&gt;" style="text;html=1;align=center;verticalAlign=middle;resizable=0;points=[];autosize=1;strokeColor=none;fillColor=none;" parent="1" vertex="1">
          <mxGeometry x="52" y="485" width="190" height="30" as="geometry" />
        </mxCell>
        <mxCell id="Riq8RpmcWjQWpSHCEzmq-73" value="rdma_destroy_event_channel" style="rounded=1;whiteSpace=wrap;html=1;arcSize=6;" parent="1" vertex="1">
          <mxGeometry x="415" y="880" width="110" height="40" as="geometry" />
        </mxCell>
        <mxCell id="Riq8RpmcWjQWpSHCEzmq-94" style="edgeStyle=orthogonalEdgeStyle;rounded=0;orthogonalLoop=1;jettySize=auto;html=1;exitX=0.5;exitY=1;exitDx=0;exitDy=0;entryX=0.5;entryY=0;entryDx=0;entryDy=0;" parent="1" source="Riq8RpmcWjQWpSHCEzmq-75" target="Riq8RpmcWjQWpSHCEzmq-93" edge="1">
          <mxGeometry relative="1" as="geometry" />
        </mxCell>
        <mxCell id="Riq8RpmcWjQWpSHCEzmq-75" value="rdma_resolve_route" style="rounded=1;whiteSpace=wrap;html=1;arcSize=6;" parent="1" vertex="1">
          <mxGeometry x="-189" y="515" width="110" height="40" as="geometry" />
        </mxCell>
        <mxCell id="Riq8RpmcWjQWpSHCEzmq-84" style="edgeStyle=orthogonalEdgeStyle;rounded=0;orthogonalLoop=1;jettySize=auto;html=1;exitX=0.5;exitY=1;exitDx=0;exitDy=0;entryX=0.5;entryY=0;entryDx=0;entryDy=0;" parent="1" source="Riq8RpmcWjQWpSHCEzmq-76" target="Riq8RpmcWjQWpSHCEzmq-83" edge="1">
          <mxGeometry relative="1" as="geometry" />
        </mxCell>
        <mxCell id="Riq8RpmcWjQWpSHCEzmq-76" value="ibv_create_comp_channel&lt;div&gt;ibv_create_cq&lt;/div&gt;" style="rounded=1;whiteSpace=wrap;html=1;arcSize=6;" parent="1" vertex="1">
          <mxGeometry x="-49" y="515" width="110" height="40" as="geometry" />
        </mxCell>
        <mxCell id="Riq8RpmcWjQWpSHCEzmq-81" value="&lt;font style=&quot;font-size: 10px;&quot;&gt;RDMA_CM_EVENT_ADDR_RESOLVED&lt;/font&gt;" style="text;html=1;align=center;verticalAlign=middle;resizable=0;points=[];autosize=1;strokeColor=none;fillColor=none;" parent="1" vertex="1">
          <mxGeometry x="-244" y="485" width="210" height="30" as="geometry" />
        </mxCell>
        <mxCell id="Riq8RpmcWjQWpSHCEzmq-82" value="&lt;span style=&quot;font-size: 10px;&quot;&gt;RDMA_CM_EVENT_ROUTE_RESOLVED&lt;/span&gt;" style="text;html=1;align=center;verticalAlign=middle;resizable=0;points=[];autosize=1;strokeColor=none;fillColor=none;" parent="1" vertex="1">
          <mxGeometry x="-89" y="457" width="210" height="30" as="geometry" />
        </mxCell>
        <mxCell id="Riq8RpmcWjQWpSHCEzmq-86" style="edgeStyle=orthogonalEdgeStyle;rounded=0;orthogonalLoop=1;jettySize=auto;html=1;exitX=0.5;exitY=1;exitDx=0;exitDy=0;entryX=0.5;entryY=0;entryDx=0;entryDy=0;" parent="1" source="Riq8RpmcWjQWpSHCEzmq-83" target="Riq8RpmcWjQWpSHCEzmq-85" edge="1">
          <mxGeometry relative="1" as="geometry" />
        </mxCell>
        <mxCell id="Riq8RpmcWjQWpSHCEzmq-83" value="rdma_create_qp" style="rounded=1;whiteSpace=wrap;html=1;arcSize=6;" parent="1" vertex="1">
          <mxGeometry x="-49" y="585" width="110" height="40" as="geometry" />
        </mxCell>
        <mxCell id="Riq8RpmcWjQWpSHCEzmq-95" style="edgeStyle=orthogonalEdgeStyle;rounded=0;orthogonalLoop=1;jettySize=auto;html=1;exitX=0.5;exitY=1;exitDx=0;exitDy=0;entryX=1;entryY=0.5;entryDx=0;entryDy=0;" parent="1" source="Riq8RpmcWjQWpSHCEzmq-85" target="Riq8RpmcWjQWpSHCEzmq-93" edge="1">
          <mxGeometry relative="1" as="geometry" />
        </mxCell>
        <mxCell id="Riq8RpmcWjQWpSHCEzmq-85" value="rdma_connect" style="rounded=1;whiteSpace=wrap;html=1;arcSize=6;" parent="1" vertex="1">
          <mxGeometry x="-49" y="655" width="110" height="40" as="geometry" />
        </mxCell>
        <mxCell id="Riq8RpmcWjQWpSHCEzmq-88" value="&lt;font style=&quot;font-size: 10px;&quot;&gt;RDMA_CM_EVENT_REJECTED&lt;/font&gt;" style="text;html=1;align=center;verticalAlign=middle;resizable=0;points=[];autosize=1;strokeColor=none;fillColor=none;" parent="1" vertex="1">
          <mxGeometry x="200" y="457" width="170" height="30" as="geometry" />
        </mxCell>
        <mxCell id="Riq8RpmcWjQWpSHCEzmq-100" style="edgeStyle=orthogonalEdgeStyle;rounded=0;orthogonalLoop=1;jettySize=auto;html=1;exitX=1;exitY=0.5;exitDx=0;exitDy=0;entryX=1;entryY=0.5;entryDx=0;entryDy=0;" parent="1" source="Riq8RpmcWjQWpSHCEzmq-89" target="Riq8RpmcWjQWpSHCEzmq-7" edge="1">
          <mxGeometry relative="1" as="geometry">
            <Array as="points">
              <mxPoint x="350" y="532" />
              <mxPoint x="350" y="245" />
            </Array>
          </mxGeometry>
        </mxCell>
        <mxCell id="Riq8RpmcWjQWpSHCEzmq-89" value="rdma_destroy_qp" style="rounded=1;whiteSpace=wrap;html=1;arcSize=6;" parent="1" vertex="1">
          <mxGeometry x="229" y="512" width="110" height="40" as="geometry" />
        </mxCell>
        <mxCell id="Riq8RpmcWjQWpSHCEzmq-96" style="edgeStyle=orthogonalEdgeStyle;rounded=0;orthogonalLoop=1;jettySize=auto;html=1;exitX=0;exitY=0.5;exitDx=0;exitDy=0;entryX=0;entryY=0.5;entryDx=0;entryDy=0;jumpStyle=arc;" parent="1" source="Riq8RpmcWjQWpSHCEzmq-93" target="Riq8RpmcWjQWpSHCEzmq-66" edge="1">
          <mxGeometry relative="1" as="geometry">
            <Array as="points">
              <mxPoint x="-197" y="745" />
              <mxPoint x="-197" y="385" />
            </Array>
          </mxGeometry>
        </mxCell>
        <mxCell id="Riq8RpmcWjQWpSHCEzmq-93" value="rdma_ack_cm_event" style="rounded=1;whiteSpace=wrap;html=1;arcSize=6;" parent="1" vertex="1">
          <mxGeometry x="-189" y="720" width="110" height="40" as="geometry" />
        </mxCell>
        <mxCell id="Riq8RpmcWjQWpSHCEzmq-98" value="rdma_destroy_event_channel" style="rounded=1;whiteSpace=wrap;html=1;arcSize=6;" parent="1" vertex="1">
          <mxGeometry x="88" y="585" width="110" height="40" as="geometry" />
        </mxCell>
        <mxCell id="2OygJsFjzoHM-JgJF6Tj-2" value="switch" style="text;html=1;align=center;verticalAlign=middle;resizable=0;points=[];autosize=1;strokeColor=none;fillColor=none;" parent="1" vertex="1">
          <mxGeometry x="132" y="403" width="60" height="30" as="geometry" />
        </mxCell>
      </root>
    </mxGraphModel>
  </diagram>
</mxfile>
